PathFileType	4	(X/Y/Z)	./resultDataOpenSim/trcMotMarkerGrf/sub10/qtm-14-01.trc
DataRate	CameraRate	NumFrames	NumMarkers	Units	OrigDataRate	OrigDataStartFrame	OrigNumFrames
250.000000	250.000000	11	24	m	250.000000	341	454
Frame#	Time	L.Toe.Tip			R.Toe.Tip			L.Ankle.Lat			R.Ankle.Lat			L.Ankle.Med			R.Ankle.Med			L.Heel			R.Heel			L.Knee.Lat			R.Knee.Lat			L.Knee.Med			R.Knee.Med			L.Thigh.Upper			R.Thigh.Upper			L.ASIS			R.ASIS			V.Sacral			L.Acromium			R.Acromium			C7			L.Elbow			R.Elbow			L.Wrist.Lat			R.Wrist.Lat
		X1	Y1	Z1	X2	Y2	Z2	X3	Y3	Z3	X4	Y4	Z4	X5	Y5	Z5	X6	Y6	Z6	X7	Y7	Z7	X8	Y8	Z8	X9	Y9	Z9	X10	Y10	Z10	X11	Y11	Z11	X12	Y12	Z12	X13	Y13	Z13	X14	Y14	Z14	X15	Y15	Z15	X16	Y16	Z16	X17	Y17	Z17	X18	Y18	Z18	X19	Y19	Z19	X20	Y20	Z20	X21	Y21	Z21	X22	Y22	Z22	X23	Y23	Z23	X24	Y24	Z24

341	1.36	0.91744631	0.072781921	-0.22787314	0.93502458	0.038306764	0.014336417	0.83135457	0.17623937	-0.24676859	0.79470871	0.062732345	0.053770868	0.8585925	0.18308553	-0.16484258	0.81788674	0.079135926	-0.03431861	0.76178298	0.18479757	-0.19963837	0.74099752	0.040505497	0.0095349571	1.0773616	0.458728	-0.25625887	0.96674877	0.42052838	0.047890797	1.1039371	0.43219564	-0.13819217	0.96957566	0.42426172	-0.079909017	0.90566013	0.79112617	-0.27176666	0.92074381	0.83429765	0.11107489	0.96076219	0.90243014	-0.20735559	0.98293785	0.92079342	0.037048977	0.77496046	0.93684885	-0.076756763	0.9369656	1.4018821	-0.22526681	0.91754968	1.3967669	0.076897301	0.86368589	1.4249063	-0.078340951	0.78410759	1.0995549	-0.27830445	0.7760451	1.0877752	0.16802508	0.80734403	0.91466558	-0.44706297	0.85026677	0.9850799	0.38958764
342	1.364	0.93663216	0.070698692	-0.22943509	0.93502205	0.038263758	0.014284216	0.84722422	0.1712926	-0.24809658	0.79475497	0.063129423	0.053597345	0.87370798	0.17881881	-0.1660018	0.81812268	0.079575741	-0.034474105	0.77741125	0.17763728	-0.20098539	0.74101468	0.041032897	0.00920634	1.0860122	0.46102459	-0.25679179	0.96771921	0.42068408	0.04782069	1.1114292	0.43496286	-0.13883483	0.97090369	0.4242107	-0.080052223	0.91174272	0.79275191	-0.27282413	0.9251483	0.8348356	0.11025445	0.96634437	0.90395129	-0.20822444	0.98781151	0.92142428	0.036250767	0.78022592	0.93758891	-0.077580098	0.94175569	1.402718	-0.22602236	0.9238277	1.3967335	0.076898699	0.86862644	1.4256936	-0.078751776	0.78857175	1.1003228	-0.27847498	0.78249489	1.0863878	0.16737025	0.81191743	0.91517474	-0.44691739	0.86412943	0.98219158	0.38568569
343	1.368	0.95591264	0.068678487	-0.23098071	0.93501047	0.038237787	0.014226023	0.86324503	0.16630489	-0.24936367	0.79476583	0.063576822	0.053401322	0.88963737	0.17448555	-0.16730901	0.81837317	0.080004995	-0.034647145	0.79318931	0.17041306	-0.2023191	0.74105056	0.041586079	0.0088948965	1.0945381	0.46320717	-0.25735888	0.96867949	0.42086027	0.047732125	1.1190614	0.43762478	-0.13941693	0.97213541	0.42423846	-0.080193468	0.91779382	0.79434613	-0.27387372	0.92953643	0.83534941	0.10941129	0.97194705	0.90544244	-0.20911849	0.99275448	0.92199643	0.035411631	0.78550058	0.93832584	-0.078431237	0.94656774	1.4035136	-0.22678373	0.93020897	1.3965634	0.076721393	0.87356984	1.4264548	-0.07917665	0.79305039	1.1010651	-0.27865878	0.78901822	1.0849362	0.16679683	0.81648904	0.91565216	-0.4467904	0.87793712	0.9793952	0.38164502
344	1.372	0.97527967	0.06674903	-0.23250201	0.93499482	0.038229923	0.014162525	0.87942752	0.16127298	-0.25058189	0.79476427	0.064056541	0.053177643	0.90630441	0.17010868	-0.16872857	0.81858173	0.080415181	-0.034837812	0.8091251	0.16312348	-0.20363938	0.74114702	0.04216496	0.0086720125	1.102809	0.4652275	-0.25793978	0.96962661	0.42105204	0.047627557	1.1269851	0.4401403	-0.13997655	0.97329487	0.42433038	-0.080336852	0.92382055	0.79590105	-0.27491386	0.93390926	0.83583862	0.10854638	0.97756509	0.90688682	-0.21002992	0.99774513	0.9225313	0.034530273	0.79078452	0.93906416	-0.079309199	0.95139783	1.4042729	-0.2275443	0.93635481	1.3963291	0.076399385	0.87850335	1.427199	-0.079632682	0.79753269	1.1017741	-0.2788916	0.79559775	1.0834227	0.1662977	0.82106183	0.91609242	-0.44667794	0.89170178	0.97668895	0.3774631
345	1.376	0.99473508	0.064940362	-0.23399396	0.93496907	0.038232279	0.01409941	0.89577586	0.1561911	-0.25177318	0.79477574	0.064546215	0.052931771	0.92327873	0.16570514	-0.17014257	0.81872101	0.080816796	-0.035053427	0.82530255	0.15576274	-0.20486298	0.74136032	0.042756768	0.0086101654	1.1106871	0.46705931	-0.25851769	0.97056294	0.42125603	0.047513063	1.1349086	0.44245637	-0.14056909	0.97454217	0.42440807	-0.080456871	0.92982955	0.79741413	-0.27594661	0.9382689	0.83630696	0.10765979	0.98320036	0.90826945	-0.21095344	1.0027267	0.92306318	0.033610881	0.79607702	0.93980067	-0.080210866	0.95624257	1.4049955	-0.2283082	0.94208402	1.3961412	0.076050739	0.88342223	1.4279275	-0.080118763	0.80201293	1.1024381	-0.27919571	0.80224301	1.0818531	0.16586335	0.82564747	0.91648743	-0.44657705	0.90543315	0.9740778	0.37312766
346	1.38	1.0142834	0.063280212	-0.23545984	0.93491558	0.038241384	0.014048165	0.91228384	0.15105493	-0.25295553	0.79481067	0.065038306	0.052680316	0.94002537	0.16126664	-0.17144702	0.81880011	0.081222828	-0.035294004	0.8418759	0.14831301	-0.2058826	0.74169602	0.043342413	0.0087025902	1.1180981	0.46870603	-0.25909745	0.97149638	0.42147136	0.047393495	1.1425725	0.4445565	-0.1412086	0.97601267	0.4243999	-0.080531528	0.93582866	0.79888583	-0.2769756	0.94261646	0.83676055	0.10675314	0.98886097	0.90958759	-0.21188906	1.0076541	0.92361313	0.032665297	0.80137893	0.94052215	-0.081148115	0.96110527	1.4056767	-0.22908194	0.94751668	1.3960298	0.075737486	0.88833302	1.428635	-0.080618942	0.8065069	1.1030565	-0.27954391	0.80896973	1.0802601	0.16547102	0.83025338	0.91683668	-0.44648645	0.91913447	0.97157104	0.36862163
347	1.384	1.0339216	0.061788288	-0.23689896	0.93482455	0.03826048	0.014019028	0.92894465	0.14587422	-0.25412372	0.79487347	0.065532828	0.052441833	0.95621162	0.15676031	-0.17263615	0.81887234	0.08164104	-0.035537911	0.85896586	0.14075129	-0.20669905	0.742051	0.04392428	0.0088071019	1.1251191	0.47019579	-0.25968296	0.97243473	0.42170021	0.047271913	1.1499998	0.4464525	-0.14187036	0.97764685	0.42432372	-0.080575909	0.94181916	0.80031293	-0.27799801	0.94694832	0.83720584	0.10582839	0.99455668	0.91084811	-0.21283376	1.0125193	0.92417795	0.031704986	0.80669236	0.9412154	-0.082137475	0.96599142	1.4063165	-0.22986181	0.95288499	1.3959536	0.075442791	0.89324649	1.4293158	-0.081118751	0.81106402	1.1036591	-0.27983812	0.81576804	1.0787037	0.16509565	0.83487405	0.91715243	-0.44640512	0.93278588	0.96918002	0.36393486
348	1.388	1.0536361	0.060475128	-0.23829607	0.93473566	0.038297925	0.014008107	0.94576452	0.14068859	-0.25525295	0.79496896	0.066028375	0.052228866	0.97182295	0.15217238	-0.17375738	0.8189996	0.082074182	-0.035753986	0.87650012	0.13309665	-0.20747246	0.74228632	0.044528183	0.0087516804	1.1319564	0.47155057	-0.26027804	0.97338262	0.4219469	0.047150368	1.1572873	0.44814858	-0.14253228	0.97927039	0.42425335	-0.080621382	0.9477967	0.80168747	-0.27901133	0.95125139	0.83764866	0.1048859	1.0002938	0.91205869	-0.21377858	1.0173416	0.92474003	0.030733788	0.81201539	0.94187723	-0.083190339	0.97090179	1.4069176	-0.23063856	0.95830476	1.3958807	0.075138394	0.89816193	1.4299654	-0.081619353	0.81573722	1.1043045	-0.27997287	0.82257605	1.0772522	0.16472895	0.8394951	0.91744909	-0.44633206	0.94632718	0.96691321	0.35906666
349	1.392	1.073409	0.059343049	-0.23962676	0.93473524	0.03836477	0.014000266	0.96276136	0.13555381	-0.25632677	0.79508797	0.066528907	0.052047128	0.98722768	0.14756661	-0.17482411	0.81919477	0.082519977	-0.035927033	0.89423107	0.12544417	-0.20837735	0.74236186	0.045170879	0.0085026784	1.1387751	0.47276696	-0.26089835	0.97434195	0.42221582	0.047031392	1.1644344	0.44963804	-0.14319589	0.98078041	0.42422942	-0.080679031	0.95376041	0.80300133	-0.28002014	0.95550842	0.83809508	0.10392771	1.00607	0.91321855	-0.21471996	1.0221508	0.9252832	0.029749484	0.81733853	0.9425108	-0.084315309	0.97582837	1.4074786	-0.23140968	0.96376838	1.3958114	0.074816752	0.90306642	1.4305766	-0.082136045	0.82052296	1.1050212	-0.27995646	0.82928567	1.0759675	0.16440742	0.84410433	0.91772932	-0.44626964	0.95969972	0.96477519	0.35401912
350	1.396	1.0932208	0.058388094	-0.24087259	0.93485391	0.038454335	0.01398877	0.97994605	0.13050815	-0.25734791	0.79520519	0.067044017	0.051898308	1.0030825	0.14307611	-0.17582431	0.81942447	0.0829721	-0.036060969	0.91198311	0.11791306	-0.20941855	0.74235	0.045852542	0.0081747699	1.1455829	0.47383281	-0.26155697	0.97531516	0.42250659	0.046919336	1.1713827	0.45091933	-0.1438791	0.98218932	0.42423943	-0.080739	0.95971363	0.80424673	-0.28102837	0.9597143	0.8385494	0.10295941	1.0118727	0.91431632	-0.21566464	1.0269628	0.92580119	0.028753146	0.8226528	0.94310664	-0.085518095	0.98075981	1.4079979	-0.23217894	0.96924361	1.3957623	0.074479848	0.90795267	1.4311392	-0.082676767	0.82534999	1.1057491	-0.2799337	0.83585527	1.0748793	0.16424043	0.84870189	0.91798633	-0.44622597	0.97291615	0.9627724	0.34879551
351	1.4	1.1130504	0.057602884	-0.24203214	0.93500477	0.038532259	0.013977947	0.99731463	0.1255625	-0.25832727	0.79530709	0.067575476	0.051782076	1.0199762	0.13885453	-0.17677462	0.81965784	0.083426358	-0.036164145	0.92979233	0.11056508	-0.21047443	0.74233175	0.046570679	0.0078915161	1.1523029	0.47474237	-0.2622538	0.97630952	0.42281118	0.046820832	1.1780982	0.45199599	-0.14459876	0.98355503	0.4242551	-0.080789252	0.9656611	0.805417	-0.28203174	0.96388445	0.83900858	0.10198418	1.0176885	0.91533936	-0.21661304	1.0317695	0.92629539	0.027754882	0.82796229	0.94363937	-0.086800981	0.98569386	1.4084759	-0.23294532	0.9747216	1.3957566	0.074126468	0.91282688	1.4316449	-0.083230575	0.83014584	1.106395	-0.28005472	0.84249189	1.0739549	0.16436862	0.85330443	0.91821441	-0.44621284	0.98603712	0.96091484	0.34340379
